<?xml version="1.0" standalone="no"?><!DOCTYPE svg PUBLIC "-//W3C//DTD SVG 1.1//EN" "http://www.w3.org/Graphics/SVG/1.1/DTD/svg11.dtd"><svg t="1562645491856" class="icon" viewBox="0 0 1024 1024" version="1.1" xmlns="http://www.w3.org/2000/svg" p-id="2001" xmlns:xlink="http://www.w3.org/1999/xlink" width="200" height="200"><defs><style type="text/css"></style></defs><path d="M926.17 225.83L776.83 76.5c-8-8-18.85-12.5-30.17-12.5H128c-23.56 0-42.67 19.1-42.67 42.67v810.67c0 23.56 19.1 42.67 42.67 42.67h768c23.56 0 42.67-19.1 42.67-42.67V256c0-11.31-4.5-22.17-12.5-30.17z m-264.84-76.5V448H362.67V149.33h298.66z m192 725.34H170.67V149.33h106.67v341.33c0 23.56 19.1 42.67 42.67 42.67h384c23.56 0 42.67-19.1 42.67-42.67V167.01l106.67 106.67v600.99z" fill="#2F3CF4" p-id="2002"></path><path d="M554.67 362.67c23.56 0 42.67-19.1 42.67-42.67v-42.67c0-23.56-19.1-42.67-42.67-42.67S512 253.77 512 277.33V320c0 23.56 19.1 42.67 42.67 42.67z" fill="#2F3CF4" p-id="2003"></path></svg>