<?xml version="1.0" standalone="no"?><!DOCTYPE svg PUBLIC "-//W3C//DTD SVG 1.1//EN" "http://www.w3.org/Graphics/SVG/1.1/DTD/svg11.dtd"><svg t="1562645900245" class="icon" viewBox="0 0 1024 1024" version="1.1" xmlns="http://www.w3.org/2000/svg" p-id="8786" xmlns:xlink="http://www.w3.org/1999/xlink" width="200" height="200"><defs><style type="text/css"></style></defs><path d="M334 727a32 32 0 1 0-32-32 32 32 0 0 0 32 32zM334 544a32 32 0 1 0-32-32 32 32 0 0 0 32 32zM334 362a32 32 0 1 0-32-32 32 32 0 0 0 32 32z" p-id="8787" fill="#d81e06"></path><path d="M813 83H211a68.07 68.07 0 0 0-68 68v722a68.07 68.07 0 0 0 68 68h602a68.07 68.07 0 0 0 68-68V151a68.07 68.07 0 0 0-68-68z m-4 786H215V155h594z" p-id="8788" fill="#d81e06"></path><path d="M406 296m8 0l308 0q8 0 8 8l0 48q0 8-8 8l-308 0q-8 0-8-8l0-48q0-8 8-8Z" p-id="8789" fill="#d81e06"></path><path d="M406 480m8 0l308 0q8 0 8 8l0 48q0 8-8 8l-308 0q-8 0-8-8l0-48q0-8 8-8Z" p-id="8790" fill="#d81e06"></path><path d="M406 664m8 0l308 0q8 0 8 8l0 48q0 8-8 8l-308 0q-8 0-8-8l0-48q0-8 8-8Z" p-id="8791" fill="#d81e06"></path></svg>